<?xml version="1.0" encoding="utf-8"?>
<!-- Generator: Adobe Illustrator 19.0.0, SVG Export Plug-In . SVG Version: 6.00 Build 0)  -->
<svg version="1.1" id="Layer_1" xmlns="http://www.w3.org/2000/svg" xmlns:xlink="http://www.w3.org/1999/xlink" x="0px" y="0px"
	 viewBox="590 -500 1792 1792" style="enable-background:new 590 -500 1792 1792;" xml:space="preserve">
<g>
	<path d="M1546.3,21.5c3.1,42.2,8.7,81.5,17,117.9c8.3,36.4,21,66.5,38.2,90.4c17.8,25.1,41.3,44.1,70.4,56.9
		c29.1,12.8,65.8,19.2,110,19.2c33.7,0,71.9-2.2,114.6-6.6c42.6-4.4,82.4-6.6,119.2-6.6c69.3,0,125,9,167,27.1
		c42,18.1,75.6,44.9,100.8,80.4c23.9,34.3,40.5,77.4,49.7,129.1c9.2,51.7,13.8,109.8,13.8,174.1h-73.5c-1.2-24.9-4-52.6-8.3-83
		c-4.3-30.4-12.9-56.6-25.8-78.5c-14.1-23.7-34.7-42-61.7-54.8c-27-12.8-62.3-19.2-105.8-19.2h-214.5c-65,0-118.7-8-161.1-24
		c-42.3-16-76.4-38.4-102.2-67.3c-25.1-28.3-44.8-61.9-58.9-101c-14.1-39.1-25.5-80.7-34.1-125h-28.5c-8.6,46.7-20,89.2-34.5,127.3
		c-14.4,38.1-33.8,71-58.4,98.7c-26.3,30.1-60.7,52.9-103,68.3c-42.3,15.4-95.6,23-160,23H901.9c-45.3,0-81.3,6.9-108,20.5
		c-26.7,13.7-46.1,31.5-58.4,53.4c-10.4,18.9-18.2,44.4-23.4,76.7s-8.4,60.5-9.7,84.9h-75.3c0-63.1,4.8-120.6,14.2-172.7
		c9.5-52,26.8-95.5,51.9-130.4c25.8-35.5,60.4-62.3,103.9-80.4s97.1-27.1,160.9-27.1c36.8,0,76.3,2.2,118.6,6.6
		c42.3,4.4,80.9,6.6,115.8,6.6c41.7,0,77.1-5.9,106.2-17.9c29.1-11.9,53.2-31,72.1-57.3c16-22.6,28.5-52.5,37.7-89.5
		c9.2-37,15.6-76.9,19.3-119.7H1546.3z"/>
</g>
</svg>
