<?xml version="1.0" encoding="utf-8"?>
<!-- Generator: Adobe Illustrator 19.0.0, SVG Export Plug-In . SVG Version: 6.00 Build 0)  -->
<svg version="1.1" id="Layer_2" xmlns="http://www.w3.org/2000/svg" xmlns:xlink="http://www.w3.org/1999/xlink" x="0px" y="0px"
	 viewBox="-232 324.2 145.7 145.8" style="enable-background:new -232 324.2 145.7 145.8;" xml:space="preserve">
<style type="text/css">
	.st0{fill:#DD3735;}
	.st1{fill:#DD3A0A;}
</style>
<path class="st0" d="M-203.3,385.3c0.2,0.1,0.5,0.2,0.2,0.5c-0.2,0.3-0.5,0.6-0.7,1c-0.2,0.3-0.3,0.4-0.6,0.2
	C-204.1,386.4-203.7,385.8-203.3,385.3L-203.3,385.3z M-105.7,436.2c0,0.1,0,0.2,0,0.4c0.1-0.2,0.1-0.3,0.1-0.4H-105.7z
	 M-105.7,436.6L-105.7,436.6L-105.7,436.6z M-115.6,455.6l-8.4-46.8c-0.1,0-0.3-0.1-0.7-0.2c0.1,0.2,0.1,0.3,0.2,0.5
	c0.2,0,0.3,0,0.4-0.1c0,0,0-0.1,0-0.1L-115.6,455.6L-115.6,455.6z M-124.4,398.2c0,0.1,0,0.3,0,0.4
	C-124.4,398.5-124.4,398.3-124.4,398.2L-124.4,398.2z M-124.3,399.2C-124.4,399.2-124.4,399.2-124.3,399.2L-124.3,399.2
	C-124.4,399.2-124.4,399.2-124.3,399.2L-124.3,399.2z M-124.4,399.6v-0.3c-0.1,0-0.3,0-0.5,0.1
	C-124.6,399.4-124.4,399.5-124.4,399.6L-124.4,399.6z"/>
<path class="st1" d="M-86.6,387.8c-0.1-1.9-0.1-3.8-0.3-5.7c-0.3-2.6-0.7-5.2-1.3-7.7c-0.4-2.1-1.2-4.1-1.9-6.1
	c-0.9-2.3-1.8-4.7-3-6.9c-1.9-3.6-4.4-6.8-6.6-10.2c-1.5-2.1-3.4-3.9-4.9-6.1c-0.8-1.3-2-2.3-3.3-3.3c-1.9-1.6-4-3-6-4.3
	c-1.6-1.1-3.1-2.1-4.8-3c-1.3-0.7-2.7-1.3-4.1-1.9c-1.6-0.7-3.1-1.6-4.8-1.9c-0.4-0.1-0.8-0.2-1.3-0.4c-1.1-0.4-2.2-0.8-3.3-1.2
	c-1.7-0.5-3.3-1.2-5.1-1.6c-1.7-0.4-3.4-0.7-5.2-1c-1.9-0.3-3.9-0.4-5.9-0.6c-1.3-0.1-2.5-0.3-3.7-0.3c-1.8-0.1-3.7-0.1-5.6-0.1
	c-0.9,0-1.9-0.1-2.8-0.1c-1.4,0-2.8,0.2-4.2,0.4c-1.4,0.1-2.7,0.4-4,0.6c-1.6,0.2-3.2,0.3-4.8,0.5c-1.5,0.2-3.1,0.5-4.6,0.7
	c-0.5,0.1-1.1,0.3-1.6,0.4c-1.2,0.2-2.4,0.3-3.5,0.7c-2.1,0.6-4.2,1.4-6.2,2.1c-1.9,0.8-3.7,1.6-5.5,2.6c-1.8,1-3.6,2.2-5.3,3.4
	c-1.7,1.1-3.3,2.3-4.9,3.5c-1.5,1.2-3,2.6-4.4,3.9c-0.8,0.8-1.4,1.7-2.1,2.6c-1.2,1.4-2.4,2.8-3.6,4.2c-1,1.2-1.8,2.5-2.8,3.7
	c-1.6,2.2-3.1,4.6-4.4,7c-0.5,1-1,1.9-1.5,2.9c-0.7,1.5-1.5,2.9-2.2,4.4c-0.5,1-0.9,2.1-1.2,3.3c-0.7,2.4-1.4,4.8-2,7.2
	c-0.6,2.1-0.7,4.4-0.8,6.6c0,1.9,0.1,3.8,0.3,5.8c0,0.5-0.2,1.1,0.3,1.5c-0.2,0.5,0,0.8,0.2,0.9c-0.3,0.5,0.1,0.9,0,1.4
	c0,0.1,0.1,0.3,0.2,0.4c0,0.1,0,0.3,0,0.5c0.1,0.4,0.2,0.9,0.2,1.4c0,0.3,0.3,0.7,0.4,1.1c0,0.1,0,0.4-0.1,0.5
	c-0.3,0.3-0.2,0.6,0.2,0.8c0.2,0.6,0.1,0.9,0.1,1.2c0.1,0.4,0,0.6,0,0.7c0.4,0.8,0.5,1.7,0.6,2.5c0,0.2,0.1,0.4,0.2,0.6
	c0,0,0,0.9,0,0.9c0.2-0.1,0.4-0.2,0.7-0.3c0.1,0.6,0.3,1.2,0.5,1.8c0.2,0.4,0.2,0.6,0.1,0.6c0.2,0.9,0.3,1.7,0.6,2.5
	c0-0.9-0.1-1.8-0.2-2.7c0.7,0.2,1.3,0.5,1.7,0.5c0-0.1,0.1-0.3,0.1-0.4c-0.3-0.3-0.5-0.7-0.8-1c0.1,0.4,0,0.5,0,0.7
	c-0.2-0.1-0.4-0.2-0.7-0.3c0.2-0.2,0.4-0.5,0.7-0.8c0-0.4-0.2-0.8-0.9-0.8c0.3-0.1,0.6-0.2,0.9-0.3c0.5-0.3,0-0.8,0-1.5
	c0-0.8-0.4-1.7-0.6-2.5c-0.2-1.4-0.2-3.4-0.3-4.8c-0.3-0.2-0.5,0.4-0.6,0.4c0.1,1.2,0.3,2.3,0.4,3.5c-0.3-1-0.5-2-0.7-3.2
	c0,0.3-0.1,0.5-0.1,0.7c-0.2,0.2,0,0.5,0.1,0.9c-0.3-0.1-0.7-0.1-0.7-0.1v1.4c-0.5-0.5-0.6-0.9-0.9-1.2c-0.1-0.4-0.1-0.8-0.2-1.2
	c0.1-0.2,0-0.4,0-0.5c-0.1-0.3-0.1-0.7-0.1-1.2c0,0,0-0.8,0-0.8c0.4,0,0.6,0.1,0.9,0.1c-0.5-0.6-0.1-1,0-1.4
	c0.1-0.2,0.4-0.2,0.5-0.4c0.4-0.7,1-1.3,1-2.2c0-0.4,0.1-0.9,0.2-1.4c0.1-0.8,0.2-1.7,0.2-2.5c0.1-1.1,0-2.1,0.2-3.2
	c0.4-1.7,0.9-3.4,1.4-5.1c0.4-1.2,0.8-2.4,1.3-3.6c0.7-1.9,1.4-3.8,2.3-5.6c1.3-2.6,2.8-5.2,4.3-7.7c0.9-1.6,1.9-3.1,2.9-4.7
	c1-1.5,1.9-3.1,3.1-4.5c1.6-2,3.3-3.8,5.1-5.5c1.9-1.7,3.8-3.5,5.9-5.2c2.7-2.1,5.6-3.9,8.6-5.5c2.5-1.3,5-2.3,7.6-3.3
	c1.7-0.6,3.4-0.9,5.1-1.5c1.9-0.6,3.9-0.9,5.9-1c1.3,0,2.6-0.2,3.9-0.3c1.2-0.1,2.3-0.2,3.6-0.3c-0.1,0.2-0.2,0.3-0.2,0.4
	c-0.5,0.8-1.1,1.6-1.6,2.3c-0.4,0.6-0.9,1.3-1.4,1.9c-0.8,1-1.6,2-2.3,3.1c-1.1,1.6-2.1,3.3-3.3,4.9c-1.2,1.6-2.4,3-3.6,4.5
	c-1.6,2.1-3.1,4.2-4.7,6.3c-1.5,2-3,3.9-4.4,5.9c-1.3,1.7-2.4,3.6-3.6,5.4c-1.8,2.7-3.6,5.3-5.4,8c-1.4,2-2.8,4-4.3,6.1
	c-0.1,0.1-0.2,0.2-0.4,0.3c-0.4,0.6-0.4,1-0.5,1.3c-0.4,0.7-0.8,1.5-1.2,2.1c-0.2,0.4-0.6,0.7-0.9,1.1c0-0.6,0.8-0.9,0.4-1.6
	c-0.2,0.4-0.5,0.7-0.7,1.1l-0.6,1.2c0.2,0.1,0.5,0.2,0.2,0.5c-0.1,0.2-0.3,0.5-0.4,0.8c0.2-0.1,0.4-0.3,0.5-0.5c0,0.5-0.3,1-0.5,1.4
	c-0.2,0.4-0.7,0.7-1,1c0,0,0.4,0.2,0.4,0.2c0.4-0.1,0.6-0.4,0.6-0.2c0.1-0.2,0.3-0.3,0.3-0.5c0.2-0.5,0.5-0.9,1-1.1
	c0.2-0.1,0.3-0.2,0.5-0.4c1.5-1.5,3-3,4.3-4.6c2-2.5,3.9-5.1,5.8-7.6c0.8-1.1,1.8-2.1,2.7-3.2c0.1,1.1,0,2.2,0,3.2
	c-0.1,1.8-0.2,3.6-0.4,5.4c0,0.7,0,1.5,0,2.2c0,0.2-0.1,0.3-0.1,0.5c0,0.5,0.1,1,0.1,1.5c-0.1,1.8-0.3,3.5-0.5,5.3
	c0,0.4,0.1,0.8,0.2,1.1c-0.2,2.6,0.3,5.4-0.1,8.2c0.3-0.5,0.4-0.9,0.4-1.2c0-0.3,0-0.6,0-0.9v-0.5c0-0.9,0.2-1.8,0.1-2.7
	c-0.1-1-0.1-1.9,0.1-2.8c0.1-0.4,0-0.9,0.2-1.4v0.7c0,2.8,0,5.5-0.3,8.3c0,0.2,0.1,0.7-0.4,0.6c-0.4,0.9,0.1,1.5-0.4,2
	c-0.1,0.1,0.1,0.5,0.1,0.8c-0.2,0.6-0.2,0.6,0.1,0.6c0,1.1,0.1,2,0.2,3.1c0.8-1.8,0.4-3.7,0.7-5.6c0,0.8,0.1,1.6,0,2.4
	c0,1.3,0,2.5-0.1,3.7c0,0.2,0,0.5-0.1,0.7c-0.1,0.7-0.2,1.4-0.4,2c-0.2,0.5-0.1,1.2-0.1,1.8v1.8c0.2,0.8,0,1.3,0.1,1.7
	c-0.1,0.5-0.2,0.6-0.1,0.8l0.1,0.7c1-0.1,0.5,0.6,0.9,1c-0.3,0.4-0.2,0.5-0.2,0.7c0,0.4,0,0.8-0.1,1.3c0,1.1,0,2.2,0,3.3
	c0,0.1,0,0.3,0,0.4c0,0.1,0,1.4,0,1.4c0.1,0.1,0,0.3-0.1,0.4c0,0-0.2-6.2-0.2-6.2h-0.7c-0.1,2.9,0.1,5.5-0.4,8.3
	c-0.6,0-0.8,0.1-1.4,0.1c-1.5,0-3,0-4.5,0c-1.8,0-3.5,0-5.3,0c-0.9,0-1.8,0.1-2.7,0.1c-1.2,0-2.4-0.1-3.5-0.1
	c-1.8,0-3.5,0.1-5.3,0.2c-1.3,0-2.6,0-3.9,0.1c-0.9,0-1.8,0.1-2.6,0.2c-0.4,0-0.7,0.2-1.2,0.3c-0.1,0-0.5,0-0.8,0
	c-0.5,0.1-0.9,0.4-1.4,0.5c-0.7,0.1-0.9,0.3-0.8,1.1v0.5c0,0.1,1.1-0.1,1.1-0.1c-0.1,0-0.1,0.3-0.3,0.5c0.4-0.1,0.6-0.2,0.9-0.3
	c0.7,0.3,1.4,0.1,1.9,0.3c1.9,0.5,3.8,0.7,5.8,0.9c1.3,0.1,2.5,0.1,3.7,0.2c1.8,0.1,3.6,0.2,5.4,0.2c1.5,0,3-0.1,4.5-0.1
	c2.1,0,4.2,0.1,6.3,0.1c0.4,0,0.9-0.1,1.4-0.1h3.5c3.2-0.1,6.3-0.1,9.5-0.2c1.8-0.1,3.6-0.1,5.4-0.2l5.5-0.1c2.1,0,4.3,0,6.4-0.1
	c1.6,0,3.2-0.1,4.8-0.1c1.8,0,3.6-0.2,5.4-0.3c1,0,1.9-0.1,2.9-0.2c1.2-0.1,2.4-0.2,3.5-0.3c1.7-0.1,3.5-0.1,5.3-0.2
	c2.2-0.1,4.4-0.3,6.6-0.4c2-0.1,4.1,0,6.2-0.1c1.8,0,3.6-0.1,5.4-0.2l3.1-0.1c0,0,2,0,3.1-0.1c1.7-0.1,3.5-0.3,5.2-0.3
	c1.1,0,2.2,0,3.3,0c1.8,0,3.6-0.1,5.4-0.1c0.7,0,1.4,0.1,2.3,0.1c-0.4,0.3-0.6,0.5-0.9,0.8c0.2,0,0.4,0.1,0.6,0.2
	c-0.3,0.2-0.5,0.2-0.8,0.2c-0.1,0.2-0.2,0.3-0.3,0.8h0.9c-0.3,0-0.6,0.4-1,0.7c-0.4-0.1-0.7,0-0.9,0.5c0.3,0.2,0.3,0.3,0.2,0.5
	c-0.6,0.2-1,0.4-0.8,1c-0.2,0.1-0.4,0.2-0.7,0.3c-0.2,0.4-0.7,0.5-0.6,1c0.2,0,0.4,0.1,0.5,0.2c-0.2,0.1-0.5,0.2-0.7,0.3
	c-0.9,0.5-0.5,0.8-0.3,1c-0.1,0.1-0.3,0.2-0.4,0.2c0.1,0.4,0.2,0.5,0.3,0.5c-0.2,0.1-0.4,0.3-0.7,0.6c-0.1,0.4-0.3,0.6-0.5,0.9
	c-0.2,0.3-0.3,0.7-0.5,1c-1,1.1-1.7,2.4-3.1,3.3c-0.5,0.3-0.9,0.8-1.4,1.2c-0.9,0.8-1.7,1.7-2.6,2.5c-1.2,1-2.5,1.9-3.8,2.9
	c-1.6,1.1-3.2,2.2-4.8,3.3c-0.9,0.6-1.8,1-2.8,1.6c-0.9,0.5-1.8,1-2.7,1.6c-0.6,0.4-1.1,0.9-1.7,1.2c-1.6,0.7-3.3,1.3-5,1.9
	c-1.6,0.7-2.8,1.3-4,1.7c-1.1,0.4-2.3,0.7-3.4,0.9c-0.4,0.1-0.8,0-1.3,0c-0.8,0.1-1.7,0.3-2.5,0.4c-2.1,0.3-4.3,0.5-6.4,0.8
	c-1.3,0.1-2.5,0.4-3.7,0.5c-0.9,0-1.8,0-2.7,0c-0.6,0-1.3,0.1-1.9,0c-1-0.1-2-0.4-3.1-0.6c-0.2,0-0.6-0.1-0.8,0
	c-0.4,0.2-0.7-0.1-1.1,0c-0.2,0-0.5-0.1-0.7-0.1c-0.2,0-0.4,0.1-0.7,0c-0.5-0.1-1-0.3-1.6-0.3c-0.6,0-1.2-0.2-1.8-0.4
	c-0.9-0.2-1.7-0.4-2.6-0.6c-0.3-0.1-0.6-0.2-1-0.4c-1.3,0-2.1,0-2.9-0.3c-0.7-0.2-1.3-0.6-2-0.5c-0.2,0-0.3,0-0.5,0
	c-0.1-0.2-0.3-0.6-0.4-0.6c-1,0-1.6-0.8-2.4-1c-0.4-0.1-0.8-0.6-1.2-0.8c-1.1-0.4-1.9-1.4-3.2-1.5c-0.4,0-0.8-0.2-1.2-0.4
	c0.1,0.2,0.2,0.3,0.4,0.5c-1.4-0.7-2.7-1.5-4-2.2c-0.2,0-0.3-0.2-0.5-0.3l-1.3-0.9c-0.7,0.1-1-0.1-1.2-0.2c-1.3-0.9-2.8-1.5-4.1-2.5
	c-0.5-0.4-1.2-0.7-1.5-1.3c-0.7-0.8-1.5-1.4-2.4-1.9c-0.7-0.4-1.4-0.8-2.1-1.3c-0.3-0.2-0.7-0.5-0.7-1.1c0-0.3-0.1-0.7-0.6-0.5
	c-0.2-0.3-0.4-0.6-0.6-0.7c-0.6-0.2-1-0.7-1.4-1.1c-0.4-0.4-0.8-0.9-1.3-1.1c-1-0.4-1.6-1.2-2.1-1.9c-1.4-1.6-2.6-3.4-3.8-5.1
	c-0.1-0.1-0.3-0.2-0.4-0.4c0.2,0.5,0.4,1,0.7,1.5c-0.5-0.2-0.8-0.5-1.1-0.9c0,0,3.3,5.6,3.3,5.6c0.3,0.4,0.5,0.9,0.8,1.3
	c-0.7,0-1.2-0.3-1.5-0.8c-0.4-0.8-0.9-1.3-1.9-1.2c-0.1-0.3-0.2-0.7-0.2-1.1c-0.2,0-0.3,0-0.7,0c0.7,1.1,1.3,2,1.9,3.1
	c-0.2-0.1-0.4-0.2-0.5-0.3c0.9,0.9,1.5,2.1,2.6,2.7c0.2,1.1,1.5,1.7,1.8,2.7c-0.2,0-0.4-0.1-0.7-0.1c-0.4-0.5-0.8-1-1.3-1.5
	c0.1,0.3,0.2,0.6,0.4,0.9c0.6,0.7,1.1,1.5,1.8,2.1c0.2,0.2,0.6,0.3,0.6,0.8c0.4,0.2,0.5,0.2,0.7,0.2c0.1,0.3,0,0.7,0.5,0.6
	c0.4,0.7,0.8,0.7,1.3,0.5c0.6,0.6,1,0.7,1.4,0.3c0,0.2,0,0.5,0,0.7c0.2-0.1,0.1-0.2,0.1-0.5c0.2,0.2,0.4,0.3,0.5,0.4
	c0.5,0.7,0.9,1.3,1.6,1.8c0.9,0.8,1.7,1.6,2.6,2.3c1.7,1.4,3.6,2.6,5.5,3.6c2.3,1.3,4.6,2.7,6.9,4c2.9,1.5,5.9,2.5,9.1,3.3
	c1.2,0.2,2.3,0.5,3.4,0.8c1,0.3,2,0.7,3.1,1c1.6,0.3,3.2,0.6,4.7,0.9c0.3,0,0.7,0.1,1.1,0.1c0.4,0.1,1-0.1,1.1,0
	c0.2,0.4,0.4,0.2,0.7,0.1c0.3-0.1,0.7-0.1,1.1-0.1c1.4,0,2.7,0.3,4,0.2c0.3,0,0.7-0.2,1,0.2c0.4-0.2,0.7-0.2,0.9-0.2
	c0.1,0.4,0,0.4-0.1,0.5c-0.1,0-0.2,0.1-0.4,0.2c1.7,0.3,3.4,0.4,4.9,0c2.5,0.2,4.7-0.1,6.8-0.8c0.2,0.2,0.3,0.6,0.6,0.1
	c0.1-0.1,0.3-0.2,0.5-0.2c0.4-0.1,1-0.3,1.4-0.1c0.4,0.1,0.6-0.2,0.9-0.2c0.6,0,1.1,0,1.7-0.1c0.3,0,0.6-0.2,0.9-0.3
	c-0.4-0.2-0.8-0.2-1.1-0.2c0.6-0.3,1.1-0.5,1.7-0.8c-0.1,0.1-0.2,0.3-0.4,0.3h0.7c-0.1,0-0.3,0.4-0.6,0.7c1.7-0.4,3.3-0.8,4.9-1.2
	c-0.5-1,0.6-0.7,1-1.3c-0.5,0.1-1,0.3-1.5,0.4c1.7-0.8,3.3-1.6,5-2.3c-0.2,0.3-0.5,0.4-1,0.7c0.3,0,0.5,0,0.6,0.1
	c0.8,0.2,0.6-0.5,0.8-0.9c0.9,0,1.3-0.1,1.7-0.3c0.5-0.1,1-0.3,1.5-0.5c0.8-0.3,1.5-0.8,2.3-1.2c0.1-0.1,0.4,0,0.6,0
	c0.5-0.3,0.7-0.6,0.9-0.6c0.7,0.1,1.2-0.1,1.4-0.8c0.3-0.2,0.6-0.4,0.8-0.6c1.1-0.6,2.1-1.2,3.2-1.7c0.4,0,0.6,0,0.7,0
	c0.6-0.3,1.2-0.6,1.8-1c-0.1,0-0.5-0.2-0.5-0.2c0.5-0.1,0.6-0.1,0.9-0.2c1.2-1.4,2.8-2.3,4-3.4c0.5,0,0.5-0.2,0.5-0.3
	c0.2-0.2,0.4-0.5,0.6-0.7c1.1-1,2.2-1.8,3.2-2.8c1.4-1.4,2.8-2.9,4-4.4c1.2-1.4,2.3-2.7,3.3-4.2c1.4-2.1,2.5-4.2,3.7-6.4
	c0.9-1.6,1.7-3.1,2.5-4.7c0.1-0.1,0.3-0.3,0.4-0.3c1.3-0.1,2.6-0.2,3.9-0.4c0.3,0,0.6-0.2,0.9-0.4c-0.1-0.2-0.2-0.5-0.4-0.8
	c-0.2-0.3-0.5-0.5-0.7-0.8c-0.2-0.2-0.3-0.5-0.5-0.8c-0.1-0.2-0.3-0.4-0.4-0.7c-0.3-0.5-0.6-1.1-0.8-1.6c0-0.1-0.1-0.4-0.1-0.5
	c0.9-1.9,1.2-3.9,2-5.8c0.8-1.9,1.1-4.1,1.5-6.2c0.3-2,0.5-4,0.8-6c0.1-1.4,0.3-2.8,0.4-4.2c0.3-2.2,0.2-4.3,0.1-6.4
	C-86.4,391.5-86.5,389.6-86.6,387.8L-86.6,387.8z M-208.4,447.6c-0.3-0.4-0.6-0.8-1-1.2l0.1-0.1c0.5,0.6,1.1,1.2,1.6,1.8
	C-207.9,447.9-208.2,447.8-208.4,447.6z M-207.6,448c0.1,0,0.3,0,0.4-0.1c0.1,0.2,0.2,0.5,0.4,0.8
	C-207.4,448.7-207.8,448.4-207.6,448L-207.6,448z M-157.1,468.1v-0.1c0.9-0.1,1.8-0.2,2.7-0.3v0.1
	C-155.3,467.9-156.2,468-157.1,468.1L-157.1,468.1z M-144.9,466.8c-0.7,0.1-1.4,0.2-2.1,0.3c-0.2,0-0.5,0.3-0.6-0.1
	c-0.1,0-0.2,0-0.3,0.1c0.2,0.7,0.8,0.1,1.3,0.4c-1.1,0.1-2.1,0.2-3.1,0.4v-0.1c0.3,0,0.6-0.1,0.9-0.1v-0.1c-0.5,0-1-0.1-1.5-0.1
	c-0.1,0-0.3,0.2-0.5,0.2c-0.2,0-0.4,0.1-0.6,0.1c-0.8,0-1.6,0-2.4,0.1c0,0-0.1,0-0.2,0v-0.1c3.3-0.4,6.5-0.9,9.7-1.3
	c0,0.1,0,0.2,0.1,0.3C-144.5,466.7-144.6,466.8-144.9,466.8L-144.9,466.8z M-144.2,466.3c1.1-0.1,2.1-0.2,3.2-0.4
	C-143.2,466.6-143.9,466.7-144.2,466.3L-144.2,466.3z M-186.4,368.2c1.5-2.1,3.2-4.3,4.7-6.5c0.5-0.6,0.9-1.3,1.4-1.9
	c0.1-0.2,0.3-0.3,0.6-0.5l0-0.1c0.2-0.2,0.4-0.4,0.5-0.6c0.2-0.4,0.4-0.8,0.6-1.3c0-0.1,0.2-0.2,0.2-0.2c0.7,0.3,0.7-0.4,0.9-0.6
	c0.4-0.5,0.9-1,1.3-1.5c0.3-0.4,0.6-0.7,0.8-1.2c0-0.1-0.1-0.4-0.1-0.6h-0.1c0.1-0.1,0.3-0.2,0.4-0.3c0,0,0,0,0.1,0
	c0.3-0.4,0.6-0.9,0.9-1.3c0.6-0.8,1.2-1.6,1.9-2.2c-0.1,0.2-0.2,0.5-0.3,0.7c0,0,0,0,0.1,0c0.6-0.8,1.2-1.5,1.8-2.3
	c0,0-0.1-0.1-0.1-0.1c-0.2,0.2-0.4,0.5-0.7,0.7c0,0-0.1-0.1-0.1-0.1c0.5-0.6,1-1.3,1.5-2c0.1,0.1,0.2,0.3,0.4,0.7
	c0.2-0.5,0.4-0.8,0.5-1.2c-0.1,0.1-0.3,0.3-0.5,0.4l-0.1-0.1l0.9-1.3c0.9-1.3,1.8-2.7,2.8-4c0.3-0.5,0.8-0.9,1.1-1.4
	c0.9-1.8,2.4-3.3,3.5-5c0.2-0.3,0.6-0.6,0.9-0.9c0.2-0.3,0.4-0.2,0.6,0c1.3,1.7,2.6,3.4,3.9,5c1,1.2,1.9,2.4,2.9,3.6
	c1.1,1.6,2.2,3.1,3.3,4.7c1.3,1.8,2.5,3.6,3.7,5.4c1.8,2.7,3.6,5.4,5.4,8.2c1.4,2,2.7,3.9,4,5.9h-2.5c-2.3,0-4.6-0.2-6.9-0.1
	c-3.1,0.1-6.3,0.5-9.4,0.7c-3.9,0.3-7.9,0.4-11.8,0.4c-1.4,0-2.8,0.2-4.2,0.3c-1.7,0.1-3.4,0.2-5,0.2c-2,0.1-3.9,0.1-5.9,0.2
	C-184.1,368.3-185.2,368.2-186.4,368.2L-186.4,368.2z M-130.8,390.6v0.4c0,0-0.1,0-0.2,0c-0.2-0.7-0.4-1.4-0.6-2.1
	c-0.5-1.4-1-2.8-1.9-4.1c-1-1.4-1.8-2.8-2.8-4.2c-0.2-0.3-0.6-0.6-0.9-0.9c-1-1.1-2-2.3-3.3-3.1c-1.9-1.2-3.9-2.2-6.1-3.1
	c-0.6-0.2-1.1-0.5-1.7-0.9h1.2l8.3-0.1c1.8,0,3.5,0,5.3-0.1c0.4,0,0.7,0.1,0.9,0.5c0.4,0.7,0.9,1.5,1.4,2.2c0,0.1,0.1,0.2,0.1,0.4
	c0,1.1,0,2.2,0,3.3c0,1.1,0.1,2.2,0.2,3.3c0,1.1-0.1,2.3,0,3.4C-130.8,387.2-130.8,388.9-130.8,390.6L-130.8,390.6z M-183,374.3
	c2.3-0.1,4.5-0.2,6.7-0.3c1.7-0.1,3.5-0.1,5.3-0.2c0.7,0,1.4-0.1,2.1,0c-0.8,0.4-1.6,0.8-2.2,1.3c-0.9,0.6-1.7,1.4-2.6,2
	c-0.9,0.6-1.7,1.4-2.4,2.2c-0.9,1.1-1.9,2.1-2.9,3.2c-0.7,0.8-1.5,1.5-2,2.3c-0.8,1.1-1.6,2.2-2.3,3.4
	C-183.1,383.5-182.8,379-183,374.3L-183,374.3z M-151.3,421c-1.6,0.4-3.2,0.8-4.8,1c-1.4,0.2-2.8,0.1-4.2,0.1c-1.3,0-2.5,0-3.7-0.1
	c-1.4-0.1-2.8-0.3-4.2-0.9c-1.2-0.5-2.4-1-3.5-1.6c-1.2-0.6-2.3-1.3-3.2-2.3c-0.6-0.8-1.5-1.4-2.3-2.1c0.1,0.6,0.5,1.1,1,1.4
	c-0.2,0.3-0.6,0.1-1.1-0.6c-0.1,0.1-0.3,0.1-0.4,0.2c0.1-0.3,0.3-0.7,0.4-1c-0.2-0.4-0.4-0.8-0.6-1.2c-0.4-0.6-0.8-1.3-1.1-1.9
	c-0.1-0.1-0.1-0.3-0.2-0.4c-0.2-0.3-0.5-0.6-0.7-0.9c-0.4-0.6-0.7-1.2-1.2-1.8c0,0.1,0,0.3,0,0.5c0,0-0.1,0-0.1,0l-1-2.5
	c0,0,0,0-0.1,0l0.9,3.2c0,0-0.1,0-0.1,0c-0.1-0.2-0.3-0.4-0.4-0.6c-0.1-0.4-0.4-0.4-0.6-0.2c-0.1,0.1-0.2,0.4-0.2,0.6
	c0.3,0.8,0.7,1.7,1.1,2.5c0.1,0.3,0.2,0.5,0.3,0.8c0,0.1,0.2,0.2,0.2,0.3c0.2,0.4,0.3,0.8,0.6,1.1c0.4,0.6,0.9,1.2,1.4,1.7
	c0.4,0.6,0.8,1.2,1.2,1.8c0,0.1,0.2,0.1,0.2,0.1c0.2,0.7,1.1,1.3,1.7,1c0.1,1.1,1.4,1.5,1.8,2.6c-0.6-0.2-1-0.4-1.4-0.6
	c0,0,0,0.1-0.1,0.2c0.6,0.3,1.2,0.6,1.7,0.9c0.5,0.3,1,0.6,1.4,0.9c0.6,0.5,1.3,0.8,2.1,1c0-0.1-0.1-0.2-0.1-0.2
	c1.4,0.6,2.8,1.3,3.8,1.8c-5,0.1-10.4,0.2-16,0.3c0-0.9,0-1.8,0-2.7c0-0.4,0.1-0.7,0-1.1c-0.1-2.2-0.1-4.5-0.4-6.7
	c-0.3-2.3-0.3-4.6-0.2-7c0-1.3,0-2.6-0.1-3.8c0-1.7,0-3.4,0.1-5.1c0-0.2,0.1-0.4,0.2-0.7h0.1c0,0.1,0,0.2,0.1,0.3
	c0.1,0.1,0.4,0.4,0.5,0.3c0.3-0.2,0.7-0.4,0.8-0.7c0.2-0.6,0.3-1.2,0.3-1.8c0-0.4,0.2-0.7,0.4-1c0.1-0.1,0.1-0.3,0.2-0.5
	c-0.2-0.1-0.4-0.2-0.6-0.4c0.2-0.5,0.1-1.2,0.9-1.5c0.1,0,0.1-0.3,0.1-0.4c0-0.4,0.1-0.8,0.1-1.2c0.1,0.1,0.1,0.2,0.2,0.3
	c0.1-0.1,0.1-0.1,0.1-0.1c0-0.2,0-0.6,0-0.6c0.6-0.1,0.3-0.7,0.6-1c0-0.1,0-0.2,0-0.3c0-0.1,0-0.2,0-0.2c0.7-0.1,0.6-0.9,1-1.2
	c0.1-0.1,0.2-0.2,0.4-0.5c0.4,0.7-0.3,1-0.3,1.5c0.8-0.5,1.1-1.7,0.6-2c0.2-0.1,0.4-0.3,0.5-0.5c0.5-0.6,1.1-1.1,1.6-1.7
	c0.3-0.4,0.5-1,0.9-1.4c0.2-0.2,0.6-0.4,0.9-0.6c0.9-0.5,1.7-1,2.2-1.8c0.1-0.1,0.2-0.2,0.4-0.3c0.1-0.1,0.4-0.1,0.5-0.2
	c0-0.1-0.1-0.3-0.2-0.5c0.2-0.1,0.4-0.3,0.8-0.5c-0.1,0.3-0.2,0.5-0.3,0.7l0.2,0.2c0.4-0.3,1.1-0.7,1.6-1c0,0-0.2-0.2-0.2-0.2
	c-0.3,0.1-0.7,0.4-1.2,0.6c0.1-0.1,0.1-0.2,0.1-0.3c0.7-0.4,1.4-0.9,2.1-1.2c1.7-0.8,3.4-1.6,5.1-2.3c0.3-0.1,0.7,0,1,0
	c0.1,0,0.2,0,0.4,0c0.8-0.2,1.6-0.5,2.3-0.7c0.3-0.1,0.7-0.1,1.1-0.1c1.5,0,2.9,0,4.4,0.1c0.6,0,1.2,0.2,1.8,0.4
	c0.7,0.2,1.5,0.6,2.2,0.9c0.8,0.4,1.6,0.9,2.4,1.5c1.4,0.9,2.7,1.9,4.1,2.8c1.4,0.8,2.4,1.9,3.3,3.2c1.1,1.5,2.3,2.9,2.8,4.7
	l0.7,3.2c0.1,0.6,0.5,1.2,0.3,1.8c-0.2,1.2-0.4,2.5-0.6,3.7c-0.1,0.5-0.2,1-0.1,1.5c0.1,1.5-0.5,2.8-1.1,4.2
	c-0.2,0.4-0.5,0.9-0.7,1.4c0,0,0.3,0.2,0.4,0.2l0.4-0.9c0,0,0,0,0.1,0c-0.2,0.7-0.4,1.4-0.7,2.1c-0.6,1.5-1.2,3.1-1.9,4.5
	c-0.4,0.8-1.1,1.5-1.6,2.3c-0.5,0.7-0.9,1.4-1.4,2c-0.4,0.5-0.9,1.1-1.5,1.5c-1.3,1-2.7,1.9-4.1,2.7
	C-149.3,420.5-150.3,420.8-151.3,421L-151.3,421z M-177.2,418.5L-177.2,418.5c-0.1,0-0.3,0-0.4-0.1l-1.2-1.8
	c-0.1-0.1-0.1-0.3-0.1-0.5C-178.3,416.9-177.7,417.7-177.2,418.5L-177.2,418.5z M-147,425.1c2.2-0.9,4-2.2,5.6-3.7
	c0.2-0.2,0.5-0.5,0.8-0.7c2-1.3,3.5-3,4.9-5c1.6-2.2,2.6-4.8,3.8-7.1c0.1-0.2,0.2-0.4,0.3-0.5c-0.1,5.5,0.5,11,1.3,16.5
	C-135.8,424.7-141.3,424.9-147,425.1L-147,425.1z M-97.8,423.7c0,0.1-0.1,0.2-0.2,0.3c0-0.1,0-0.2-0.1-0.4c-0.3,0.8-0.9,0.4-1.4,0.4
	c-2.6,0-5.3,0-7.9,0c-2.5,0-5.1,0-7.6,0c-0.8,0-1.7,0.2-2.5,0.2c-2,0.1-4,0.1-6,0.2c-0.1,0-0.3-0.2-0.5-0.4c0,0.1-0.1,0.2-0.3,0.4
	c-0.1-0.1-0.1-0.2-0.2-0.3c0,0.1-0.1,0.3-0.1,0.4h-0.1c-0.1-0.7-0.3-1.3-0.3-2c0-1.5,0.1-2.9,0.2-4.4c0-0.7,0-1.3,0-1.9
	c0.2,0.1,0.3,0.2,0.5,0.4c0.1-0.2,0.2-0.3,0.3-0.5c0,0-0.1-0.1-0.2-0.1c0.1,0,0.2-0.1,0.2-0.2c0-0.1,0.1-0.3,0.1-0.4
	c0-0.3-0.1-0.6-0.1-0.9c0,0,0.1,0,0.1-0.1l0.3,1.5h0.1c-0.2-0.3,0.4-0.6-0.1-1c0,0,0-0.3,0-0.5c-0.1-0.3-0.2-0.6-0.4-1
	c0,0,0.2-0.1,0.3-0.1c-0.2-0.1-0.3-0.2-0.5-0.2c0.5-0.4,0.5-0.7,0-1.2c0.1,0,0.2,0,0.2-0.1c0-0.4,0-0.9-0.1-1.3
	c-0.1-0.5,0.1-1.1-0.6-1.4c0,0.1,0.1,0.2,0.2,0.4c0,0-0.1,0-0.3,0.1c-0.6-0.6-0.2-1.4-0.4-2.2c0.3,0.1,0.6,0.2,0.8,0.3
	c-0.1-0.3-0.3-0.7-0.5-1.2h-0.2v-3.2c0,0,0.3,0,0.5,0.1c0,0,0-0.1,0-0.1c-0.1-0.2-0.3-0.4-0.5-0.6l0.1-0.1c-0.4-0.5-0.2-1.2-0.2-1.3
	v-3.4c0.5,0.5-0.2,1.1,0.5,1.4v-0.5h0c0-0.7,0-1.5-0.1-2.2h-0.1c0,0.1,0,0.1-0.1,0.2h-0.1l0.3-11.6c0.5,0.6,1,1.2,1.4,1.8
	c1.1,2,2.6,3.8,3.9,5.6c1.2,1.6,2.2,3.4,3.3,5c1.3,2,2.6,4,3.9,6c1,1.5,2,3,3,4.5c0.9,1.3,1.9,2.6,2.9,3.8c0.8,1.1,1.7,2.2,2.5,3.4
	c1,1.4,1.9,2.7,2.9,4c0.5,0.7,1,1.4,1.5,2c0.3,0.4,0.7,0.7,1,0.9c0,0-0.1,0-0.2,0c0.1,0.2,0.2,0.3,0.3,0.4
	C-97.5,422.9-97.5,423.2-97.8,423.7L-97.8,423.7z M-95.3,411.5v-0.3C-95.3,411.3-95.2,411.4-95.3,411.5L-95.3,411.5z M-93.6,390.1
	c0,0-0.3-0.3-0.4-0.3c0,0.1,0,0.3-0.1,0.5c0-0.1-0.4-0.1-0.4-0.2c0,0.7,0.3,1.4,0.2,2c0.1-0.1,0.7-0.1,0.9-0.3c0,0,0.1,0.1,0.2,0.1
	c-1,0.7-0.7,1.5-0.3,2.3c0.1,0.2,0.4,0.6,0.1,1c-0.1,0.1,0,0.4,0.1,0.6h0.1v0.1l-0.4,0.1c-0.1-0.1-0.7-0.4-0.7-0.7v2.5
	c0.5,0.1,0.5,0.8,0.7,1.2c0.1-0.1,0.1-0.2,0.2-0.4l0,0c0,0.3-0.1,0.6-0.2,0.9c-0.1,0.4-0.2,0.8-0.2,1.3c0,0,0.1,0.1,0.1,0.2
	c-0.5,1.2-0.2,2.6-0.4,3.8c-0.1,0.9,0,1.9-0.1,2.9c-0.1,0.8-0.3,1.7-0.5,2.5c0,0.1-0.1,0.2-0.4,0.3c0.1-0.6,0-1,0-1.5
	c-0.1,0-0.7-0.3-0.7-0.3c0,0.7,0.4,1.6,0.5,2.4c-0.1,0-0.7-0.4-0.8-0.4c-0.1,0.6-0.1,1.4-0.1,2c0,0.5-0.5,0.9-0.5,1.5
	c0,0.3,0.3,0.5,0.3,1h0.4c0-1,0.4-1.8,0.4-2.9h0.1c0,0.1,0.2,0.2,0.1,0.2c-0.1,0.5-0.3,1.1-0.2,1.7c0,0.3,0.2,0.6,0.1,0.9
	c-0.1,0.3-0.1,0.6-0.2,1c0-0.2-0.1-0.3-0.1-0.5c0,0-0.5,0-0.5,0c0,0.3,0.3,0.6,0.3,0.8c0,0-0.1,0-0.2,0.1l-1.6-2.3
	c-1.3-1.8-2.5-3.7-3.8-5.6c-0.3-0.5-0.6-1-0.9-1.5c-1.5-2.6-3.2-5.1-5-7.4c-1.4-1.8-2.5-3.7-3.8-5.6c-1.2-1.8-2.4-3.5-3.6-5.3
	c-0.4-0.6-1-1.1-1.4-1.7c-1.3-2-2.4-4-3.6-6c-1.1-1.7-2.2-3.3-3.3-4.9c-0.4-0.5-0.8-1.1-1.2-1.7c0-0.1-0.1-0.2-0.1-0.3
	c-0.1-1.1-0.2-2.1-0.2-3.2c0-1,0.1-1.9,0.1-3v-0.9c0-0.2,0-0.4,0-0.7c0,0,0.1-0.1,0.1-0.2c-1.4,0-2.9-0.1-4.3,0c-0.9,0-1.4-0.3-2-1
	c-1.8-2.1-3.2-4.5-4.8-6.7c-1.5-2.1-3.1-4.2-4.6-6.3c-1.3-1.7-2.5-3.4-3.8-5.1c-1.4-1.9-2.8-3.9-4.2-5.8c-1.7-2.3-3.5-4.7-5.3-7
	c-0.8-1.1-1.8-2.1-2.7-3.2c0.6,0.1,1.2,0.2,1.8,0.2l2.3,0.1c1.7,0.1,3.5,0.2,5.2,0.5c1.5,0.2,2.9,0.5,4.4,0.7
	c3.2,0.5,6.4,1.4,9.4,2.4c1.8,0.6,3.5,1.4,5.3,2.1c3.9,1.6,7.7,3.5,11.4,5.6c1.2,0.6,1.8,1.7,2.7,2.6c1.3,1.3,2.5,2.6,3.7,4
	c1.4,1.6,2.7,3.3,4.1,4.9c1.2,1.5,2.5,2.9,3.7,4.4c0.4,0.4,0.7,1,1,1.5c0.8,1.2,1.7,2.3,2.3,3.5c0.5,0.9,0.8,2,1.1,3
	c0.5,1.5,1,3,1.5,4.5c0.3,1.1,0.6,2.3,0.9,3.4c0.2,0.8,0.1,1.6,0.4,2.4c0.3,1,0,2.1,0.3,3.2c0,0.1,0.1,0.2,0.1,0.3
	c0.2,0.2,0.3,0.4,0,0.7c0,0,0,0.2,0,0.4c0.1-0.1,0.1-0.2,0.2-0.3c0,0.1,0,0.1,0,0.2c0,0.2,0,0.4,0,0.6c0,0.1,0.1,0.2,0.1,0.3
	c0.1-0.1,0.2-0.1,0.4-0.3c0.4,1.7,0.5,3.3,0.5,5c0,1.6,0.3,3.2-0.4,4.8C-93.5,391.1-93.8,390.6-93.6,390.1L-93.6,390.1z"/>
<path class="st0" d="M-124.6,409C-124.6,409-124.6,409-124.6,409L-124.6,409C-124.6,408.9-124.6,408.9-124.6,409L-124.6,409z
	 M-117,457c-0.5,0.4-1.1,0.7-1.7,0.9c-0.1,0-0.1-0.1-0.1-0.1c0.5-0.3,1.1-0.7,1.7-1C-117.1,456.8-117,456.9-117,457L-117,457z
	 M-208,391.2c0.5-0.7,1.1-1.4,1.6-2c0,0,0.4,0.1,0.5,0.2c-0.5,0.7-1.3,1.6-1.8,2.3C-207.7,391.5-207.9,391.2-208,391.2L-208,391.2z
	 M-221.8,415c-0.4-0.8-0.8-1.7-1.2-2.5c0,0,0.4-0.2,0.4-0.2c0.5,0.8,0.8,1.7,1.2,2.5C-221.3,414.8-221.7,415-221.8,415L-221.8,415z
	 M-209.4,391.6c-0.3,0.4-0.6,0.9-0.9,1.4c0-0.1-0.6,0.2-0.6,0.1c0.3-0.4,1-1.2,1.3-1.7C-209.5,391.5-209.5,391.6-209.4,391.6
	L-209.4,391.6z M-122.2,459C-122.1,459-122.1,459-122.2,459c0.4,0,0.8,0,1.2,0C-121.6,459.5-122,459.4-122.2,459L-122.2,459z
	 M-209.3,393.7c0.1-0.1,0.1-0.3,0.2-0.4c0.1,0,0.2,0,0.2,0c0.2-0.3,0.2-0.6,0.4-0.9c0,0-0.1,0-0.1-0.1c-0.3,0.2-0.6,0.4-0.9,0.6
	c0.1,0.1,0.1,0.1,0.1,0.2c-0.4,0-0.5,0.1-0.7,0.7c0,0.1-0.3,0.2-0.5,0.4c0,0.1-0.1,0.3-0.2,0.6l0,0.1c-0.1,0.1-0.2,0.1-0.2,0.1
	c-0.3,0.3-0.6,0.5-0.9,0.8c0,0.1-0.1,0.3-0.1,0.4c0.3-0.3,0.9-1,1.4-1.4l0,0c0.2-0.3,0.3-0.6,0.5-0.9c0,0,0,0.1,0.1,0.1
	c-0.1,0.4-0.3,0.8-0.4,1.2c-0.1,0-0.2,0.1-0.2,0.1c-0.2,0.1-0.3,0.3-0.5,0.5l-0.9,0.6c-0.5,0.4-1,0.8-1.5,1.3
	c-0.3,0.5-0.7,1-1.1,1.7c0.6-0.1,0.7,0.1,0.7,0.6c0.7,0.1,0.7-0.4,0.9-0.8c0-0.1,0.1-0.3,0.2-0.3c0.4-0.4,0.9-0.7,1.4-1.1
	c0.1-0.1,0.1-0.3,0.1-0.4c0,0-0.2,0-0.4-0.1c0.4-0.5,1.1-1.3,1.5-1.8c0.2-0.1,0.5-0.3,0.5-0.5c0-0.5,0.3-0.7,0.7-0.9
	C-209.3,393.9-209.3,393.7-209.3,393.7L-209.3,393.7z"/>
<path class="st0" d="M-208.3,393.1c-0.2,0.3-0.4,0.6-0.6,1l-0.3-0.1c-0.2,1.1-0.9,2.1-1.6,2.3c0.2,0.1,0.4,0.2,0.5,0.1
	c0.1,0,0.2-0.3,0.3-0.4l1.3-1.9l0.4-0.7L-208.3,393.1L-208.3,393.1z M-224.5,414.5c0.2,0,0.5,0,0.8,0c0-0.2,0.2-0.1,0.2-0.3h0.1
	c0,0.2,0,0.4,0,0.7h-1C-224.3,414.8-224.5,414.5-224.5,414.5L-224.5,414.5z M-224.9,412.2c-0.1-0.1-0.4-0.3-0.4-0.4
	c0-0.2,0.1-0.4,0.2-0.7c0.1,0.3,0.1,0.6,0.2,1C-224.8,412.2-224.9,412.2-224.9,412.2L-224.9,412.2z M-223.7,409.1
	c0.2,0.5,0.4,1,0.6,1.5c0,0-0.3,0.1-0.4,0.2c-0.2-0.5-0.4-1-0.6-1.5C-224,409.3-223.8,409.1-223.7,409.1L-223.7,409.1z
	 M-115.6,455.6c0.2-0.1,0.5-0.1,0.9-0.2c-0.4,0.3-0.8,0.6-1.1,0.9c0,0-0.1-0.1-0.1-0.1C-115.8,455.9-115.7,455.8-115.6,455.6z
	 M-175.3,352.9c0.3-0.2,0.5-0.3,0.8-0.5l0.1,0.1c-0.3,0.4-0.5,0.8-0.9,1.3C-175.3,353.4-175.3,353.2-175.3,352.9
	C-175.4,353-175.3,353-175.3,352.9L-175.3,352.9z M-161.1,377.5c0.4-0.2,0.9-0.4,1.4-0.6c0,0.3,0,0.5,0,0.7c-0.1,0-0.3-0.1-0.5-0.1
	c-0.3,0-0.8,0.4-1.1,0.5C-161.3,377.9-161.1,377.5-161.1,377.5L-161.1,377.5z M-124.6,418.7c0.1,0.5,1,0.7,0.1,1.2
	c0.1,0.1,0.3,0.1,0.4,0.2c0,0,0,0.1-0.1,0.2c-0.1,0-0.3,0.1-0.4,0.1c0,0-0.1-0.2-0.1-0.3C-124.7,419.7-124.7,419.3-124.6,418.7
	L-124.6,418.7z"/>
</svg>
